<?xml version="1.0" encoding="UTF-8"?>
<svg width="44px" height="33px" viewBox="0 0 44 33" version="1.1" xmlns="http://www.w3.org/2000/svg" xmlns:xlink="http://www.w3.org/1999/xlink">
    <!-- Generator: Sketch 52.2 (67145) - http://www.bohemiancoding.com/sketch -->
    <title>Artboard</title>
    <desc>Created with Sketch.</desc>
    <g id="Artboard" stroke="none" stroke-width="1" fill="none" fill-rule="evenodd">
        <path d="M40.7115665,5.52821525 C39.3603747,6.12693869 37.9105654,6.53298608 36.3872728,6.71426473 C37.9426581,5.78285717 39.1332665,4.30551414 39.6975578,2.55055442 C38.2385706,3.41309769 36.6281179,4.03941483 34.9121493,4.37893739 C33.5380427,2.91305174 31.5835085,2 29.415603,2 C25.2565116,2 21.8842608,5.37225083 21.8842608,9.5290627 C21.8842608,10.1186082 21.9507856,10.6944169 22.0792763,11.2450313 C15.8211437,10.930703 10.2718695,7.93240688 6.55781659,3.37638606 C5.90858467,4.4867328 5.53924891,5.78051771 5.53924891,7.1615827 C5.53924891,9.77452672 6.86980543,12.0800409 8.88858497,13.4288932 C7.65436648,13.3876226 6.49357124,13.0481001 5.47734303,12.4837488 L5.47734303,12.5778073 C5.47734303,16.2253354 8.07421072,19.269521 11.5175453,19.962363 C10.8866692,20.1321243 10.221421,20.2261828 9.53319794,20.2261828 C9.04688886,20.2261828 8.57659613,20.1780138 8.1154813,20.0862347 C9.07436259,23.0799719 11.8547884,25.2569953 15.149057,25.3166817 C12.5728246,27.3354613 9.32444555,28.5352476 5.7962303,28.5352476 C5.18832896,28.5352476 4.58954553,28.498536 4,28.4320112 C7.33325972,30.572383 11.2904971,31.8203383 15.543647,31.8203383 C29.3973671,31.8203383 36.9700399,20.3454956 36.9700399,10.3939454 L36.9447857,9.41898781 C38.4244082,8.36364852 39.7044562,7.03771095 40.7115665,5.52821525 Z" id="twitter-logo" stroke="#4DFF9B" stroke-width="2"></path>
    </g>
</svg>